<mxfile host="app.diagrams.net" modified="2024-03-14T02:40:22.859Z" agent="Mozilla/5.0 (Macintosh; Intel Mac OS X 10_15_7) AppleWebKit/537.36 (KHTML, like Gecko) Chrome/122.0.0.0 Safari/537.36" etag="qM1evZxDesmQ0zH-sAib" version="24.0.2" type="github">
  <diagram name="第 1 页" id="XnjkjDKr1mUfGn7ZacOy">
    <mxGraphModel dx="795" dy="451" grid="1" gridSize="10" guides="1" tooltips="1" connect="1" arrows="1" fold="1" page="1" pageScale="1" pageWidth="827" pageHeight="1169" math="0" shadow="0">
      <root>
        <mxCell id="0" />
        <mxCell id="1" parent="0" />
        <mxCell id="wKXCI0jaQ6yK0BL8qmGE-1" value="&lt;h2&gt;验证器网络&lt;/h2&gt;" style="rounded=0;whiteSpace=wrap;html=1;labelPosition=center;verticalLabelPosition=top;align=center;verticalAlign=bottom;" vertex="1" parent="1">
          <mxGeometry x="170" y="150" width="390" height="280" as="geometry" />
        </mxCell>
        <mxCell id="wKXCI0jaQ6yK0BL8qmGE-2" value="" style="rounded=0;whiteSpace=wrap;html=1;" vertex="1" parent="1">
          <mxGeometry x="240" y="230" width="250" height="170" as="geometry" />
        </mxCell>
        <mxCell id="wKXCI0jaQ6yK0BL8qmGE-3" value="Nacos" style="rounded=0;whiteSpace=wrap;html=1;" vertex="1" parent="1">
          <mxGeometry x="180" y="230" width="50" height="170" as="geometry" />
        </mxCell>
        <mxCell id="wKXCI0jaQ6yK0BL8qmGE-4" value="中继器" style="rounded=0;whiteSpace=wrap;html=1;" vertex="1" parent="1">
          <mxGeometry x="500" y="230" width="50" height="170" as="geometry" />
        </mxCell>
        <mxCell id="wKXCI0jaQ6yK0BL8qmGE-5" value="验证器1" style="ellipse;whiteSpace=wrap;html=1;aspect=fixed;" vertex="1" parent="1">
          <mxGeometry x="250" y="240" width="60" height="60" as="geometry" />
        </mxCell>
        <mxCell id="wKXCI0jaQ6yK0BL8qmGE-6" value="验证器1" style="ellipse;whiteSpace=wrap;html=1;aspect=fixed;" vertex="1" parent="1">
          <mxGeometry x="335" y="240" width="60" height="60" as="geometry" />
        </mxCell>
        <mxCell id="wKXCI0jaQ6yK0BL8qmGE-7" value="验证器1" style="ellipse;whiteSpace=wrap;html=1;aspect=fixed;" vertex="1" parent="1">
          <mxGeometry x="290" y="320" width="60" height="60" as="geometry" />
        </mxCell>
        <mxCell id="wKXCI0jaQ6yK0BL8qmGE-8" value="" style="endArrow=classic;startArrow=classic;html=1;rounded=0;" edge="1" parent="1" source="wKXCI0jaQ6yK0BL8qmGE-7">
          <mxGeometry width="50" height="50" relative="1" as="geometry">
            <mxPoint x="310" y="350" as="sourcePoint" />
            <mxPoint x="360" y="300" as="targetPoint" />
          </mxGeometry>
        </mxCell>
        <mxCell id="wKXCI0jaQ6yK0BL8qmGE-9" value="" style="endArrow=classic;startArrow=classic;html=1;rounded=0;entryX=1;entryY=1;entryDx=0;entryDy=0;" edge="1" parent="1" source="wKXCI0jaQ6yK0BL8qmGE-7" target="wKXCI0jaQ6yK0BL8qmGE-5">
          <mxGeometry width="50" height="50" relative="1" as="geometry">
            <mxPoint x="349" y="337" as="sourcePoint" />
            <mxPoint x="370" y="310" as="targetPoint" />
          </mxGeometry>
        </mxCell>
        <mxCell id="wKXCI0jaQ6yK0BL8qmGE-10" value="" style="endArrow=classic;startArrow=classic;html=1;rounded=0;entryX=0;entryY=0.5;entryDx=0;entryDy=0;exitX=1;exitY=0.5;exitDx=0;exitDy=0;" edge="1" parent="1" source="wKXCI0jaQ6yK0BL8qmGE-5" target="wKXCI0jaQ6yK0BL8qmGE-6">
          <mxGeometry width="50" height="50" relative="1" as="geometry">
            <mxPoint x="349" y="337" as="sourcePoint" />
            <mxPoint x="370" y="310" as="targetPoint" />
          </mxGeometry>
        </mxCell>
        <mxCell id="wKXCI0jaQ6yK0BL8qmGE-11" value="" style="shape=flexArrow;endArrow=classic;html=1;rounded=0;entryX=0;entryY=0.5;entryDx=0;entryDy=0;" edge="1" parent="1" target="wKXCI0jaQ6yK0BL8qmGE-4">
          <mxGeometry width="50" height="50" relative="1" as="geometry">
            <mxPoint x="440" y="315" as="sourcePoint" />
            <mxPoint x="445" y="280" as="targetPoint" />
          </mxGeometry>
        </mxCell>
        <mxCell id="wKXCI0jaQ6yK0BL8qmGE-12" value="管理控制台" style="rounded=0;whiteSpace=wrap;html=1;" vertex="1" parent="1">
          <mxGeometry x="180" y="160" width="370" height="60" as="geometry" />
        </mxCell>
      </root>
    </mxGraphModel>
  </diagram>
</mxfile>
